<?xml version="1.0" encoding="utf-8"?>
<!-- Generator: Adobe Illustrator 16.0.0, SVG Export Plug-In . SVG Version: 6.00 Build 0)  -->
<!DOCTYPE svg PUBLIC "-//W3C//DTD SVG 1.1//EN" "http://www.w3.org/Graphics/SVG/1.1/DTD/svg11.dtd">
<svg version="1.1" id="Layer_1" xmlns="http://www.w3.org/2000/svg" xmlns:xlink="http://www.w3.org/1999/xlink" x="0px" y="0px"
	 width="629px" height="109.777px" viewBox="0 0 629 109.777" enable-background="new 0 0 629 109.777" xml:space="preserve">
<g>
	<path fill="#FFFFFF" d="M0,91.062V89.18l3.163-0.033c0.463-0.024,0.826-0.106,1.079-0.249c0.256-0.144,0.449-0.325,0.583-0.548
		c0.243-0.439,0.401-1.224,0.468-2.345c0-0.286,0.052-3.453,0.162-9.492v-3.935c0-1.762-0.031-3.658-0.098-5.688
		c-0.064-1.297-0.169-2.072-0.313-2.315c-0.143-0.242-0.391-0.425-0.744-0.544c-0.354-0.123-1.786-0.171-4.3-0.146v-1.888
		c4.452-0.614,7.704-1.421,9.756-2.416c0.439-0.218,0.736-0.328,0.891-0.328c0.155,0,0.275,0.058,0.365,0.167
		c0.086,0.109,0.131,0.271,0.131,0.497c0,0.152-0.012,0.328-0.033,0.525c-0.089,1.058-0.155,2.635-0.198,4.731l4.321-3.968
		c0.549-0.487,0.891-0.764,1.021-0.826c0.506-0.286,1.232-0.554,2.175-0.799c0.945-0.238,1.934-0.362,2.965-0.362
		c2.108,0,3.986,0.521,5.634,1.557c1.647,1.035,2.91,2.568,3.788,4.593l3.653-3.371c0.816-0.748,1.38-1.213,1.69-1.39
		c0.573-0.328,1.39-0.64,2.449-0.925c1.058-0.287,2.106-0.43,3.142-0.43c2.516,0,4.625,0.667,6.324,2.001
		c1.697,1.331,2.791,2.85,3.278,4.545c0.308,1.126,0.463,3.553,0.463,7.275v3.438l0.081,4.598c0.055,2.67,0.083,4.23,0.083,4.692
		c0.046,1.104,0.177,1.911,0.398,2.418c0.089,0.194,0.227,0.368,0.416,0.509c0.188,0.145,0.46,0.259,0.816,0.349
		c0.133,0.024,1.351,0.054,3.659,0.102v1.882c-2.769-0.153-4.66-0.23-5.669-0.23c-0.969,0-2.913,0.077-5.837,0.23l0.272-9.124
		l0.093-3.573v-2.846c0-3.7-0.191-6.231-0.565-7.586c-0.375-1.356-1.167-2.455-2.371-3.289c-1.203-0.835-2.602-1.255-4.192-1.255
		c-1.836,0-3.495,0.527-4.975,1.583c-1.089,0.816-1.81,1.777-2.158,2.881c-0.347,1.102-0.52,3.249-0.52,6.445v2.215l0.081,4.598
		c0.038,2.67,0.067,4.23,0.083,4.692c0.045,1.104,0.179,1.911,0.399,2.418c0.09,0.194,0.222,0.368,0.401,0.509
		c0.177,0.145,0.444,0.259,0.797,0.349c0.155,0.024,1.387,0.054,3.695,0.102v1.882c-3.242-0.153-5.844-0.23-7.806-0.23
		c-1.585,0-4.474,0.077-8.661,0.23V89.18l3.161-0.033c0.487-0.024,0.859-0.106,1.112-0.249c0.258-0.144,0.449-0.325,0.583-0.548
		c0.243-0.439,0.389-1.224,0.435-2.345c0.019-0.286,0.072-3.453,0.165-9.492v-2.578c0-2.845-0.22-4.922-0.659-6.23
		c-0.442-1.314-1.21-2.359-2.309-3.142c-1.098-0.783-2.417-1.174-3.954-1.174c-1.317,0-2.563,0.281-3.74,0.838
		c-1.177,0.563-2.084,1.268-2.727,2.103c-0.642,0.841-1.029,1.733-1.162,2.679c-0.22,1.521-0.329,3.352-0.329,5.488v2.017
		c0.109,5.735,0.167,8.828,0.167,9.29c0.043,1.104,0.177,1.911,0.396,2.418c0.091,0.194,0.222,0.368,0.401,0.509
		c0.176,0.145,0.453,0.259,0.831,0.349c0.134,0.024,1.354,0.054,3.662,0.102v1.882c-3.043-0.153-5.634-0.23-7.772-0.23
		C6.701,90.832,3.836,90.909,0,91.062z"/>
	<path fill="#FFFFFF" d="M59.885,63.851v-1.886c4.273-0.487,7.868-1.409,10.776-2.78l0.73,0.53
		c-0.177,4.695-0.267,8.289-0.267,10.781v6.017c0.109,5.735,0.176,8.828,0.2,9.29c0.021,1.104,0.144,1.911,0.363,2.418
		c0.109,0.194,0.253,0.368,0.43,0.509c0.177,0.145,0.439,0.259,0.792,0.349c0.134,0.024,1.356,0.054,3.671,0.102v1.882
		c-3.351-0.153-6.029-0.23-8.035-0.23c-1.762,0-4.65,0.077-8.661,0.23V89.18l3.16-0.033c0.463-0.024,0.826-0.106,1.079-0.249
		c0.256-0.144,0.449-0.325,0.583-0.548c0.244-0.439,0.401-1.224,0.468-2.345c0-0.286,0.052-3.453,0.162-9.492v-5.819
		c0-3.285-0.11-5.233-0.33-5.855c-0.131-0.328-0.368-0.577-0.711-0.74C63.955,63.933,62.484,63.851,59.885,63.851z"/>
	<path fill="#FFFFFF" d="M79.028,91.062V89.18l3.161-0.033c0.465-0.024,0.826-0.106,1.081-0.249
		c0.256-0.144,0.449-0.325,0.583-0.548c0.243-0.439,0.398-1.224,0.465-2.345c0-0.286,0.055-3.453,0.165-9.492v-3.935
		c0-1.762-0.034-3.658-0.101-5.688c-0.064-1.297-0.169-2.072-0.312-2.315c-0.144-0.242-0.392-0.425-0.742-0.544
		c-0.354-0.123-1.786-0.171-4.3-0.146v-1.888c4.452-0.614,7.705-1.421,9.753-2.416c0.444-0.218,0.74-0.328,0.893-0.328
		c0.158,0,0.277,0.058,0.363,0.167c0.091,0.109,0.134,0.271,0.134,0.497c0,0.152-0.01,0.328-0.034,0.525
		c-0.067,0.796-0.129,2.472-0.196,5.025l6.15-5.257c1.805-0.663,3.515-0.992,5.123-0.992c1.786,0,3.48,0.362,5.075,1.095
		c1.6,0.725,2.803,1.641,3.605,2.744c0.807,1.098,1.341,2.486,1.604,4.164c0.152,0.993,0.234,3.757,0.234,8.297v5.854
		c0,2.864,0.077,4.817,0.229,5.853c0.11,0.664,0.282,1.118,0.511,1.37c0.234,0.26,0.592,0.417,1.074,0.482l3.538,0.102v1.882
		c-2.158-0.153-3.954-0.23-5.386-0.23c-1.236,0-3.285,0.077-6.149,0.23c0.306-5.443,0.458-8.882,0.458-10.313V75.19
		c0-3.46-0.128-5.729-0.396-6.807c-0.372-1.48-1.222-2.672-2.544-3.574c-1.323-0.906-2.922-1.354-4.794-1.354
		c-1.652,0-3.166,0.391-4.531,1.169c-1.365,0.784-2.344,1.687-2.926,2.712c-0.583,1.028-0.875,2.751-0.875,5.178v4
		c0.11,5.729,0.163,8.828,0.163,9.29c0.048,1.104,0.177,1.911,0.401,2.418c0.085,0.194,0.22,0.368,0.401,0.509
		c0.177,0.145,0.454,0.259,0.831,0.349c0.133,0.024,1.351,0.054,3.657,0.102v1.882c-2.688-0.153-5.123-0.23-7.305-0.23
		C86.235,90.832,83.215,90.909,79.028,91.062z"/>
	<path fill="#FFFFFF" d="M137.524,46.161v-1.886c2.444-0.268,4.512-0.576,6.202-0.944c1.685-0.362,3.332-0.807,4.941-1.337
		l0.43,0.297c-0.091,1.874-0.187,5.49-0.296,10.847l-0.134,5.289v20.699c0,2.248,0.038,4.196,0.115,5.838
		c0.076,1.642,0.215,2.622,0.415,2.942c0.196,0.319,0.53,0.578,0.988,0.776c0.463,0.198,1.843,0.396,4.135,0.594v1.786
		c-2.688-0.153-4.583-0.23-5.687-0.23c-0.95,0-2.889,0.077-5.82,0.23c0.067-1.52,0.119-3.573,0.167-6.151
		c-0.883,0.64-2.067,1.601-3.557,2.879c-1.485,1.279-2.65,2.326-3.485,3.143c-1.767,0.439-3.319,0.659-4.665,0.659
		c-2.492,0-4.784-0.616-6.875-1.853c-2.097-1.231-3.71-3.022-4.847-5.373c-1.136-2.349-1.705-4.987-1.705-7.921
		c0-2.199,0.349-4.291,1.046-6.264c0.692-1.972,1.566-3.5,2.626-4.579c0.597-0.613,1.953-1.554,4.068-2.812
		c2.115-1.256,3.829-2.166,5.142-2.725c1.308-0.565,2.736-0.847,4.283-0.847c1.389,0,2.75,0.174,4.082,0.516
		c1.332,0.339,2.63,0.864,3.886,1.567v-8.696c0-3.063-0.133-4.925-0.396-5.584c-0.09-0.243-0.258-0.423-0.497-0.53
		C141.644,46.289,140.126,46.181,137.524,46.161z M142.981,66.949c-1.499-1.646-3.07-2.853-4.712-3.613
		c-1.642-0.76-3.256-1.142-4.846-1.142c-1.805,0-3.471,0.462-4.989,1.39c-1.523,0.927-2.688,2.321-3.49,4.192
		c-0.807,1.872-1.208,4.119-1.208,6.737c0,4.03,1.002,7.176,3.007,9.444c2.006,2.268,4.417,3.402,7.238,3.402
		c1.475,0,2.798-0.311,3.967-0.926c1.166-0.616,2.192-1.519,3.075-2.708c0.884-1.187,1.447-2.51,1.69-3.962
		c0.177-0.969,0.268-3.356,0.268-7.165V66.949z"/>
	<path fill="#FFFFFF" d="M158.293,91.195c0.263-2.775,0.406-4.525,0.43-5.253c0.129-4.777,0.195-7.59,0.195-8.425V62.811
		c0-3.678-0.052-7.478-0.162-11.396c-0.091-2.647-0.214-4.122-0.368-4.427c-0.11-0.221-0.286-0.379-0.53-0.462
		c-0.334-0.155-1.867-0.237-4.593-0.237v-1.945c4.979-0.616,8.441-1.392,10.385-2.315c0.286-0.134,0.506-0.202,0.659-0.202
		c0.153,0,0.277,0.053,0.363,0.152c0.091,0.098,0.134,0.234,0.134,0.412c0,0.153-0.024,0.373-0.067,0.659l-0.034,1.092
		c-0.11,3.938-0.177,7.297-0.195,10.069l-0.067,5.153v6.535l4.564-4.464c0.592-0.507,1.576-1.002,2.941-1.485
		c1.365-0.485,2.822-0.73,4.364-0.73c2.425,0,4.574,0.567,6.45,1.705c1.872,1.136,3.308,2.741,4.311,4.807
		c1.003,2.079,1.504,4.369,1.504,6.882c0,1.938-0.286,3.78-0.859,5.523c-0.571,1.739-1.307,3.295-2.216,4.66
		c-0.659,1.035-1.222,1.743-1.686,2.114l-4.826,3.471c-1.962,1.457-3.495,2.39-4.598,2.799c-1.103,0.407-2.511,0.61-4.23,0.61
		c-1.475,0-2.845-0.199-4.101-0.596c-1.256-0.396-2.588-1.09-4.002-2.081l-2.678,2.511L158.293,91.195z M164.443,69.867v12.399
		c0,1.102,0.057,1.809,0.181,2.116c0.12,0.311,0.492,0.72,1.108,1.227c0.926,0.77,2,1.389,3.222,1.851
		c1.223,0.46,2.521,0.693,3.887,0.693c3.194,0,5.653-1.237,7.372-3.705c1.719-2.468,2.579-5.519,2.579-9.158
		c0-2.578-0.406-4.741-1.223-6.479c-0.816-1.742-1.938-3.052-3.371-3.92c-1.433-0.869-3.041-1.308-4.827-1.308
		c-2.096,0-3.967,0.602-5.625,1.806C166.095,66.586,164.992,68.081,164.443,69.867z"/>
	<path fill="#FFFFFF" d="M190.565,91.062V89.18c2.506-0.048,3.856-0.091,4.059-0.135c0.376-0.065,0.659-0.171,0.848-0.315
		c0.188-0.141,0.339-0.349,0.45-0.611c0.22-0.504,0.354-1.297,0.396-2.381c0.111-5.882,0.168-8.956,0.168-9.225v-3.935
		c0-1.762-0.034-3.658-0.101-5.688c-0.044-1.297-0.138-2.072-0.283-2.315c-0.141-0.242-0.395-0.425-0.759-0.544
		c-0.362-0.123-1.8-0.171-4.316-0.146v-1.888c4.456-0.614,7.707-1.421,9.754-2.416c0.446-0.218,0.74-0.328,0.894-0.328
		c0.156,0,0.276,0.058,0.367,0.167c0.086,0.109,0.128,0.271,0.128,0.497c0,0.152-0.008,0.328-0.032,0.525
		c-0.11,1.345-0.176,3.426-0.197,6.249c0.988-1.147,1.906-2.281,2.745-3.405c0.835-1.121,1.441-1.852,1.814-2.183
		c0.664-0.572,1.423-1.03,2.282-1.369c0.861-0.342,1.754-0.516,2.678-0.516c0.927,0,1.843,0.201,2.747,0.596l0.201,0.465
		c-0.335,2.93-0.521,5.509-0.563,7.735h-1.492c-0.504-1.056-1.092-1.83-1.765-2.311c-0.674-0.489-1.518-0.732-2.53-0.732
		c-1.699,0-3.143,0.704-4.33,2.102c-1.194,1.398-1.787,3.499-1.787,6.297v3.411c0,1.45,0.052,4.109,0.162,7.969
		c0.024,1.364,0.076,2.233,0.169,2.609c0.083,0.372,0.204,0.646,0.349,0.809c0.141,0.165,0.375,0.305,0.711,0.415
		c0.659,0.2,2.444,0.396,5.356,0.597v1.882c-3.882-0.153-7.191-0.23-9.921-0.23C195.944,90.832,193.209,90.909,190.565,91.062z"/>
	<path fill="#FFFFFF" d="M217.25,63.851v-1.886c4.278-0.487,7.872-1.409,10.781-2.78l0.725,0.53
		c-0.176,4.695-0.263,8.289-0.263,10.781v6.017c0.111,5.735,0.178,8.828,0.197,9.29c0.023,1.104,0.142,1.911,0.368,2.418
		c0.108,0.194,0.251,0.368,0.428,0.509c0.178,0.145,0.44,0.259,0.793,0.349c0.134,0.024,1.357,0.054,3.673,0.102v1.882
		c-3.354-0.153-6.032-0.23-8.037-0.23c-1.767,0-4.65,0.077-8.665,0.23V89.18l3.161-0.033c0.467-0.024,0.826-0.106,1.083-0.249
		c0.254-0.144,0.448-0.325,0.583-0.548c0.245-0.439,0.396-1.224,0.465-2.345c0-0.286,0.056-3.453,0.166-9.492v-5.819
		c0-3.285-0.109-5.233-0.328-5.855c-0.134-0.328-0.372-0.577-0.711-0.74C221.322,63.933,219.853,63.851,217.25,63.851z"/>
	<path fill="#FFFFFF" d="M253.036,46.161v-1.886c2.444-0.268,4.511-0.576,6.197-0.944c1.686-0.362,3.331-0.807,4.941-1.337
		l0.431,0.297c-0.087,1.874-0.187,5.49-0.296,10.847l-0.134,5.289v20.699c0,2.248,0.037,4.196,0.119,5.838
		c0.078,1.642,0.216,2.622,0.412,2.942c0.199,0.319,0.53,0.578,0.991,0.776c0.465,0.198,1.839,0.396,4.136,0.594v1.786
		c-2.693-0.153-4.586-0.23-5.691-0.23c-0.946,0-2.883,0.077-5.815,0.23c0.062-1.52,0.12-3.573,0.163-6.151
		c-0.882,0.64-2.066,1.601-3.552,2.879c-1.489,1.279-2.655,2.326-3.489,3.143c-1.762,0.439-3.319,0.659-4.66,0.659
		c-2.492,0-4.784-0.616-6.879-1.853c-2.099-1.231-3.71-3.022-4.844-5.373c-1.135-2.349-1.705-4.987-1.705-7.921
		c0-2.199,0.35-4.291,1.043-6.264c0.69-1.972,1.569-3.5,2.63-4.579c0.59-0.613,1.948-1.554,4.062-2.812
		c2.122-1.256,3.836-2.166,5.143-2.725c1.314-0.565,2.741-0.847,4.282-0.847c1.389,0,2.751,0.174,4.083,0.516
		c1.336,0.339,2.63,0.864,3.886,1.567v-8.696c0-3.063-0.128-4.925-0.396-5.584c-0.086-0.243-0.251-0.423-0.497-0.53
		C257.156,46.289,255.63,46.181,253.036,46.161z M258.486,66.949c-1.5-1.646-3.069-2.853-4.712-3.613
		c-1.641-0.76-3.257-1.142-4.84-1.142c-1.812,0-3.473,0.462-4.996,1.39c-1.523,0.927-2.684,2.321-3.489,4.192
		c-0.804,1.872-1.203,4.119-1.203,6.737c0,4.03,1.001,7.176,3.001,9.444c2.005,2.268,4.421,3.402,7.243,3.402
		c1.476,0,2.8-0.311,3.963-0.926c1.17-0.616,2.197-1.519,3.082-2.708c0.883-1.187,1.447-2.51,1.688-3.962
		c0.176-0.969,0.263-3.356,0.263-7.165V66.949z"/>
	<path fill="#FFFFFF" d="M306.142,61.832l0.262,0.631c-0.86,1.297-1.423,2.189-1.686,2.678h-6.149
		c0.506,1.299,0.76,2.516,0.76,3.663c0,1.669-0.436,3.303-1.31,4.897c-0.87,1.595-2.144,2.96-3.816,4.091
		c-1.675,1.132-3.461,1.896-5.356,2.293c-1.237,0.268-2.902,0.376-4.994,0.329c-1.433,1.141-2.339,1.996-2.712,2.569
		c-0.243,0.392-0.366,0.821-0.366,1.278c0,0.53,0.163,0.993,0.482,1.399c0.319,0.407,0.812,0.693,1.471,0.855
		c0.991,0.276,2.759,0.416,5.295,0.416l7.136-0.168c2.494,0,4.384,0.325,5.674,0.979c1.289,0.648,2.242,1.643,2.858,2.98
		c0.617,1.336,0.927,2.841,0.927,4.521c0,2.271-0.745,4.584-2.231,6.936c-1.489,2.351-3.699,4.203-6.632,5.563
		c-2.93,1.355-6.215,2.033-9.854,2.033c-3.04,0-5.634-0.473-7.771-1.423c-2.135-0.946-3.72-2.214-4.741-3.8
		c-1.027-1.586-1.54-3.251-1.54-4.994c0-0.969,0.148-1.877,0.444-2.728c0.295-0.849,0.797-1.757,1.504-2.726
		c2.689-1.236,4.618-2.316,5.787-3.243c-1.828-0.595-3.002-1.159-3.519-1.684c-0.52-0.531-0.776-1.062-0.776-1.589
		c0-0.441,0.328-1.629,0.993-3.574c1.079-0.9,2.772-2.182,5.088-3.833c-1.979-0.548-3.508-1.192-4.579-1.934
		c-1.069-0.733-1.899-1.737-2.498-3.002c-0.596-1.266-0.893-2.654-0.893-4.175c0-2.246,0.573-4.253,1.72-6.025
		c1.146-1.771,3.074-3.211,5.787-4.324c2.712-1.114,5.227-1.668,7.542-1.668c1.495,0,2.922,0.239,4.278,0.728
		c1.356,0.485,2.641,1.211,3.854,2.182C300.728,61.943,303.912,61.897,306.142,61.832z M288.782,91.428
		c-3.285,0-5.348,0.043-6.184,0.13c-0.419,0.066-0.897,0.286-1.422,0.663c-1.745,1.232-2.671,1.916-2.781,2.048
		c-0.219,0.219-0.462,0.673-0.73,1.355c-0.457,1.237-0.693,2.479-0.693,3.739c0,2.311,0.898,4.27,2.693,5.867
		c1.802,1.6,4.275,2.396,7.431,2.396c2.333,0,4.469-0.466,6.398-1.403c1.928-0.941,3.379-2.214,4.364-3.839
		c0.979-1.616,1.471-3.245,1.471-4.873c-0.068-1.415-0.282-2.484-0.646-3.209c-0.362-0.727-0.807-1.298-1.321-1.718
		c-0.522-0.421-1.229-0.761-2.134-1.027C294.697,91.49,292.549,91.448,288.782,91.428z M279.089,69.256
		c0,1.561,0.291,3.078,0.879,4.554c0.583,1.476,1.442,2.589,2.579,3.334c1.134,0.749,2.429,1.12,3.885,1.12
		c1.896,0,3.571-0.61,5.028-1.829c1.452-1.221,2.182-3.183,2.182-5.89c0-2.774-0.73-4.98-2.182-6.618
		c-1.458-1.639-3.209-2.458-5.257-2.458c-2.14,0-3.862,0.679-5.161,2.027C279.737,64.854,279.089,66.774,279.089,69.256z"/>
	<path fill="#FFFFFF" d="M333.948,85.928l-1.057,2.382c-1.521,0.95-2.636,1.581-3.341,1.891c-1.036,0.465-2.219,0.856-3.554,1.176
		c-1.335,0.32-2.739,0.482-4.216,0.482c-2.912,0-5.542-0.608-7.899-1.82c-2.36-1.212-4.198-3.025-5.506-5.441
		c-1.312-2.413-1.972-5.237-1.972-8.48c0-2.536,0.349-4.823,1.044-6.86c0.695-2.039,1.482-3.545,2.364-4.513
		c0.64-0.705,1.628-1.518,2.975-2.431c1.347-0.917,2.678-1.637,4-2.167c1.744-0.726,3.624-1.09,5.653-1.09
		c2.47,0,4.704,0.56,6.7,1.687c1.99,1.122,3.45,2.654,4.377,4.595c0.926,1.942,1.39,4.133,1.39,6.582
		c0,0.617-0.051,1.364-0.161,2.245c-1.585,0.309-3.01,0.512-4.263,0.596c-2.374,0.178-4.753,0.267-7.131,0.267h-10.6
		c0.045,3.157,0.593,5.717,1.638,7.673c1.046,1.953,2.492,3.395,4.332,4.327c1.844,0.927,3.752,1.389,5.739,1.389
		c1.34,0,2.683-0.215,4.015-0.655c1.331-0.432,2.985-1.23,4.947-2.396L333.948,85.928z M312.753,72.411
		c0.616,0.067,1.787,0.134,3.505,0.202c3.285,0.109,5.544,0.167,6.781,0.167c2.93,0,4.86-0.058,5.787-0.167
		c0.018-0.531,0.031-0.938,0.031-1.224c0-3.484-0.707-6.038-2.113-7.672c-1.415-1.634-3.301-2.444-5.657-2.444
		c-2.489,0-4.498,0.893-6.017,2.678C313.546,65.731,312.778,68.558,312.753,72.411z"/>
	<path fill="#FFFFFF" d="M364.462,81.077h1.981c0.023,1.281,0.091,2.291,0.2,3.043c0.109,0.748,0.297,1.483,0.564,2.2
		c0.263,0.716,0.671,1.323,1.227,1.814c0.548,0.496,1.151,0.883,1.805,1.16c0.649,0.276,1.312,0.46,1.986,0.544
		c0.674,0.092,1.693,0.133,3.066,0.133c2.253,0,4.102-0.595,5.548-1.784s2.171-2.823,2.171-4.895c0-0.927-0.223-1.742-0.677-2.449
		c-0.455-0.701-1.104-1.255-1.955-1.651c-0.854-0.396-2.677-0.914-5.483-1.552c-2.804-0.642-4.612-1.103-5.431-1.39
		c-1.235-0.465-2.22-1.026-2.95-1.686c-0.729-0.663-1.307-1.498-1.738-2.517c-0.43-1.011-0.643-2.113-0.643-3.303
		c0-1.745,0.456-3.349,1.369-4.812c0.918-1.466,2.358-2.655,4.324-3.571c1.965-0.914,4.108-1.371,6.423-1.371
		c1.394,0,3.004,0.19,4.836,0.578c1.835,0.386,3.323,0.864,4.469,1.436c-0.153,2.45-0.263,4.937-0.328,7.473h-1.885
		c-0.111-1.608-0.235-2.664-0.385-3.174c-0.141-0.508-0.332-0.956-0.576-1.353c-0.242-0.401-0.665-0.821-1.261-1.274
		c-0.598-0.452-1.364-0.855-2.303-1.207c-0.94-0.354-2.096-0.53-3.46-0.53c-1.946,0-3.508,0.573-4.691,1.717
		c-1.182,1.153-1.772,2.492-1.772,4.036c0,0.858,0.171,1.599,0.512,2.216c0.342,0.619,0.801,1.121,1.372,1.504
		c0.578,0.387,1.383,0.735,2.422,1.046l5.495,1.355c2.785,0.702,4.699,1.31,5.75,1.813c1.051,0.512,1.894,1.299,2.534,2.368
		c0.64,1.07,0.961,2.349,0.961,3.849c0,2.98-1.232,5.57-3.693,7.787c-2.462,2.216-5.757,3.324-9.881,3.324
		c-1.902,0-4.427-0.287-7.582-0.861c-1.747-0.329-2.684-0.558-2.818-0.69c-0.086-0.068-0.134-0.179-0.134-0.33
		c0-0.159,0.023-0.345,0.067-0.562c0.201-0.95,0.329-1.871,0.396-2.78C364.361,85.829,364.419,83.941,364.462,81.077z"/>
	<path fill="#FFFFFF" d="M389.198,65.14v-1.389c2.122-0.837,3.805-1.586,5.057-2.251c0-5.245,0-8.598,0-10.049
		c2.296-0.796,4.158-1.643,5.591-2.55l0.793,0.664c-0.244,1.828-0.508,5.862-0.793,12.104c1.764,0.018,2.821,0.034,3.174,0.034
		c0.197,0,1.333-0.026,3.404-0.068c1.148-0.023,2.007-0.066,2.578-0.135l0.234,0.231l-0.694,3.077
		c-1.391-0.022-2.666-0.031-3.835-0.031c-1.17,0-2.789,0.009-4.861,0.031l-0.166,13.455c-0.068,3.286-0.045,5.249,0.066,5.888
		c0.11,0.64,0.319,1.194,0.624,1.672c0.308,0.473,0.708,0.854,1.203,1.14c0.494,0.289,1.333,0.506,2.522,0.659
		c0.898,0,1.628-0.037,2.191-0.113c0.558-0.077,1.267-0.273,2.125-0.577l0.396,1.289c-1.038,0.816-2.04,1.661-3.01,2.543
		c-0.834,0.311-1.617,0.513-2.344,0.612c-0.725,0.1-1.562,0.146-2.511,0.146c-1.164,0-2.097-0.129-2.789-0.396
		c-0.691-0.263-1.327-0.63-1.898-1.107c-0.573-0.473-1.046-1.074-1.429-1.798c-0.377-0.732-0.625-1.878-0.735-3.439
		c0.019-1.5,0.068-3.141,0.128-4.926c0.023-0.354,0.034-0.739,0.034-1.161V64.972H392.9C391.8,64.972,390.564,65.03,389.198,65.14z"
		/>
	<path fill="#FFFFFF" d="M411.318,91.062V89.18c2.502-0.048,3.859-0.091,4.059-0.135c0.374-0.065,0.659-0.171,0.847-0.315
		c0.191-0.141,0.338-0.349,0.448-0.611c0.223-0.504,0.353-1.297,0.402-2.381c0.109-5.882,0.16-8.956,0.16-9.225v-3.935
		c0-1.762-0.032-3.658-0.095-5.688c-0.048-1.297-0.14-2.072-0.282-2.315c-0.143-0.242-0.396-0.425-0.763-0.544
		c-0.363-0.123-1.802-0.171-4.312-0.146v-1.888c4.448-0.614,7.701-1.421,9.754-2.416c0.438-0.218,0.734-0.328,0.894-0.328
		c0.152,0,0.271,0.058,0.36,0.167c0.088,0.109,0.134,0.271,0.134,0.497c0,0.152-0.014,0.328-0.032,0.525
		c-0.113,1.345-0.177,3.426-0.2,6.249c0.991-1.147,1.906-2.281,2.745-3.405c0.836-1.121,1.442-1.852,1.818-2.183
		c0.659-0.572,1.422-1.03,2.283-1.369c0.858-0.342,1.752-0.516,2.679-0.516s1.837,0.201,2.741,0.596l0.199,0.465
		c-0.328,2.93-0.52,5.509-0.563,7.735h-1.484c-0.512-1.056-1.1-1.83-1.771-2.311c-0.673-0.489-1.513-0.732-2.529-0.732
		c-1.695,0-3.142,0.704-4.333,2.102c-1.188,1.398-1.784,3.499-1.784,6.297v3.411c0,1.45,0.058,4.109,0.167,7.969
		c0.02,1.364,0.077,2.233,0.161,2.609c0.092,0.372,0.207,0.646,0.349,0.809c0.146,0.165,0.383,0.305,0.711,0.415
		c0.659,0.2,2.444,0.396,5.358,0.597v1.882c-3.882-0.153-7.185-0.23-9.92-0.23C416.695,90.832,413.965,90.909,411.318,91.062z"/>
	<path fill="#FFFFFF" d="M441.245,68.412l-1.75-0.465c0.019-0.504,0.027-1.197,0.027-2.082c0-0.924-0.009-1.659-0.027-2.213
		c2.802-1.831,5.099-3.066,6.885-3.702c1.369-0.463,2.9-0.696,4.602-0.696c2.516,0,4.637,0.473,6.359,1.423
		c1.72,0.946,3.004,2.3,3.838,4.067c0.578,1.231,0.864,2.922,0.864,5.057l-0.166,6.054v9.85c0,1.061,0.085,1.819,0.263,2.281
		c0.134,0.336,0.345,0.575,0.629,0.732c0.22,0.129,0.685,0.218,1.391,0.263l2.147,0.2v1.882c-1.809-0.153-3.395-0.23-4.76-0.23
		c-1.321,0-3.09,0.077-5.291,0.23l0.162-5.821c-4.496,3.4-7.16,5.309-8.001,5.739c-0.836,0.431-1.896,0.645-3.169,0.645
		c-2.671,0-4.747-0.713-6.237-2.133c-1.49-1.421-2.229-3.312-2.229-5.668c0-1.523,0.259-2.912,0.772-4.17
		c0.52-1.255,1.143-2.252,1.873-2.993c0.725-0.735,1.464-1.283,2.214-1.634c1.275-0.595,3.355-1.235,6.232-1.919
		c2.878-0.683,5.723-1.188,8.544-1.521c0.025-2.094-0.227-3.726-0.757-4.895c-0.53-1.166-1.423-2.124-2.679-2.875
		c-1.258-0.748-2.788-1.127-4.599-1.127c-1.298,0-2.44,0.177-3.419,0.531c-0.981,0.353-1.583,0.647-1.805,0.893l-0.592,1.189
		C441.971,66.626,441.533,67.666,441.245,68.412z M456.418,73.604c-2.862,0.484-5.307,1.022-7.337,1.62
		c-2.03,0.596-3.462,1.211-4.298,1.852c-0.509,0.373-0.95,0.938-1.321,1.686c-0.579,1.103-0.861,2.326-0.861,3.673
		c0,1.633,0.45,2.901,1.354,3.82c0.905,0.911,2.163,1.368,3.772,1.368c1.475,0,2.935-0.425,4.381-1.272
		c1.441-0.847,2.88-2.122,4.311-3.816V73.604z"/>
	<path fill="#FFFFFF" d="M467.006,65.14v-1.389c2.124-0.837,3.81-1.586,5.06-2.251c0-5.245,0-8.598,0-10.049
		c2.291-0.796,4.153-1.643,5.586-2.55l0.798,0.664c-0.244,1.828-0.513,5.862-0.798,12.104c1.768,0.018,2.823,0.034,3.174,0.034
		c0.203,0,1.335-0.026,3.406-0.068c1.146-0.023,2.011-0.066,2.584-0.135l0.227,0.231l-0.691,3.077
		c-1.39-0.022-2.668-0.031-3.839-0.031c-1.164,0-2.788,0.009-4.86,0.031l-0.163,13.455c-0.066,3.286-0.046,5.249,0.064,5.888
		c0.109,0.64,0.32,1.194,0.629,1.672c0.305,0.473,0.707,0.854,1.197,1.14c0.496,0.289,1.337,0.506,2.521,0.659
		c0.902,0,1.632-0.037,2.191-0.113c0.564-0.077,1.271-0.273,2.126-0.577l0.395,1.289c-1.034,0.816-2.032,1.661-3.003,2.543
		c-0.84,0.311-1.617,0.513-2.348,0.612c-0.728,0.1-1.562,0.146-2.506,0.146c-1.17,0-2.098-0.129-2.795-0.396
		c-0.691-0.263-1.323-0.63-1.896-1.107c-0.573-0.473-1.05-1.074-1.426-1.798c-0.385-0.732-0.628-1.878-0.74-3.439
		c0.023-1.5,0.064-3.141,0.133-4.926c0.024-0.354,0.033-0.739,0.033-1.161V64.972h-1.355
		C469.607,64.972,468.375,65.03,467.006,65.14z"/>
	<path fill="#FFFFFF" d="M516.803,85.928l-1.061,2.382c-1.518,0.95-2.636,1.581-3.337,1.891c-1.035,0.465-2.22,0.856-3.558,1.176
		c-1.332,0.32-2.735,0.482-4.215,0.482c-2.908,0-5.544-0.608-7.902-1.82c-2.359-1.212-4.192-3.025-5.505-5.441
		c-1.312-2.413-1.966-5.237-1.966-8.48c0-2.536,0.349-4.823,1.039-6.86c0.698-2.039,1.485-3.545,2.363-4.513
		c0.64-0.705,1.633-1.518,2.979-2.431c1.342-0.917,2.678-1.637,4.001-2.167c1.738-0.726,3.626-1.09,5.654-1.09
		c2.467,0,4.697,0.56,6.693,1.687c1.995,1.122,3.458,2.654,4.382,4.595c0.927,1.942,1.39,4.133,1.39,6.582
		c0,0.617-0.055,1.364-0.166,2.245c-1.586,0.309-3.004,0.512-4.26,0.596c-2.378,0.178-4.755,0.267-7.133,0.267h-10.594
		c0.043,3.157,0.586,5.717,1.633,7.673c1.05,1.953,2.491,3.395,4.334,4.327c1.84,0.927,3.752,1.389,5.736,1.389
		c1.345,0,2.682-0.215,4.02-0.655c1.331-0.432,2.978-1.23,4.94-2.396L516.803,85.928z M495.609,72.411
		c0.614,0.067,1.786,0.134,3.503,0.202c3.286,0.109,5.545,0.167,6.776,0.167c2.93,0,4.859-0.058,5.787-0.167
		c0.023-0.531,0.033-0.938,0.033-1.224c0-3.484-0.703-6.038-2.116-7.672c-1.408-1.634-3.295-2.444-5.651-2.444
		c-2.492,0-4.498,0.893-6.021,2.678C496.4,65.731,495.629,68.558,495.609,72.411z"/>
	<path fill="#FFFFFF" d="M554.2,61.832l0.27,0.631c-0.865,1.297-1.425,2.189-1.689,2.678h-6.152
		c0.507,1.299,0.765,2.516,0.765,3.663c0,1.669-0.439,3.303-1.308,4.897c-0.869,1.595-2.145,2.96-3.821,4.091
		c-1.674,1.132-3.461,1.896-5.354,2.293c-1.231,0.268-2.898,0.376-4.994,0.329c-1.435,1.141-2.337,1.996-2.707,2.569
		c-0.243,0.392-0.369,0.821-0.369,1.278c0,0.53,0.161,0.993,0.481,1.399c0.321,0.407,0.81,0.693,1.471,0.855
		c0.995,0.276,2.757,0.416,5.291,0.416l7.142-0.168c2.494,0,4.384,0.325,5.673,0.979c1.289,0.648,2.24,1.643,2.859,2.98
		c0.617,1.336,0.927,2.841,0.927,4.521c0,2.271-0.745,4.584-2.234,6.936c-1.488,2.351-3.694,4.203-6.627,5.563
		c-2.936,1.355-6.216,2.033-9.853,2.033c-3.044,0-5.634-0.473-7.775-1.423c-2.14-0.946-3.72-2.214-4.745-3.8
		c-1.022-1.586-1.536-3.251-1.536-4.994c0-0.969,0.151-1.877,0.448-2.728c0.295-0.849,0.796-1.757,1.504-2.726
		c2.688-1.236,4.616-2.316,5.785-3.243c-1.827-0.595-3.002-1.159-3.521-1.684c-0.517-0.531-0.775-1.062-0.775-1.589
		c0-0.441,0.33-1.629,0.988-3.574c1.085-0.9,2.778-2.182,5.095-3.833c-1.987-0.548-3.51-1.192-4.577-1.934
		c-1.069-0.733-1.902-1.737-2.497-3.002c-0.599-1.266-0.893-2.654-0.893-4.175c0-2.246,0.571-4.253,1.717-6.025
		c1.147-1.771,3.075-3.211,5.787-4.324c2.711-1.114,5.225-1.668,7.54-1.668c1.5,0,2.927,0.239,4.282,0.728
		c1.357,0.485,2.64,1.211,3.854,2.182C548.791,61.943,551.977,61.897,554.2,61.832z M536.841,91.428
		c-3.285,0-5.343,0.043-6.184,0.13c-0.42,0.066-0.893,0.286-1.422,0.663c-1.739,1.232-2.663,1.916-2.772,2.048
		c-0.227,0.219-0.465,0.673-0.732,1.355c-0.464,1.237-0.69,2.479-0.69,3.739c0,2.311,0.896,4.27,2.691,5.867
		c1.8,1.6,4.272,2.396,7.424,2.396c2.335,0,4.471-0.466,6.398-1.403c1.93-0.941,3.385-2.214,4.363-3.839
		c0.984-1.616,1.476-3.245,1.476-4.873c-0.066-1.415-0.28-2.484-0.648-3.209c-0.362-0.727-0.804-1.298-1.323-1.718
		c-0.514-0.421-1.227-0.761-2.13-1.027C542.762,91.49,540.614,91.448,536.841,91.428z M527.154,69.256
		c0,1.561,0.29,3.078,0.878,4.554c0.583,1.476,1.441,2.589,2.577,3.334c1.138,0.749,2.433,1.12,3.887,1.12
		c1.897,0,3.574-0.61,5.022-1.829c1.456-1.221,2.183-3.183,2.183-5.89c0-2.774-0.727-4.98-2.183-6.618
		c-1.448-1.639-3.208-2.458-5.256-2.458c-2.137,0-3.856,0.679-5.157,2.027C527.804,64.854,527.154,66.774,527.154,69.256z"/>
	<path fill="#FFFFFF" d="M556.713,63.851v-1.886c4.276-0.487,7.874-1.409,10.78-2.78l0.728,0.53
		c-0.178,4.695-0.263,8.289-0.263,10.781v6.017c0.109,5.735,0.177,8.828,0.199,9.29c0.021,1.104,0.143,1.911,0.362,2.418
		c0.109,0.194,0.253,0.368,0.431,0.509c0.175,0.145,0.439,0.259,0.793,0.349c0.134,0.024,1.355,0.054,3.671,0.102v1.882
		c-3.351-0.153-6.03-0.23-8.034-0.23c-1.767,0-4.652,0.077-8.667,0.23V89.18l3.161-0.033c0.468-0.024,0.824-0.106,1.084-0.249
		c0.252-0.144,0.448-0.325,0.583-0.548c0.241-0.439,0.398-1.224,0.462-2.345c0-0.286,0.059-3.453,0.168-9.492v-5.819
		c0-3.285-0.109-5.233-0.331-5.855c-0.134-0.328-0.37-0.577-0.711-0.74C560.784,63.933,559.314,63.851,556.713,63.851z"/>
	<path fill="#FFFFFF" d="M601.719,85.928l-1.057,2.382c-1.522,0.95-2.635,1.581-3.341,1.891c-1.036,0.465-2.222,0.856-3.552,1.176
		c-1.338,0.32-2.741,0.482-4.217,0.482c-2.912,0-5.545-0.608-7.901-1.82c-2.358-1.212-4.197-3.025-5.507-5.441
		c-1.312-2.413-1.972-5.237-1.972-8.48c0-2.536,0.349-4.823,1.047-6.86c0.69-2.039,1.479-3.545,2.364-4.513
		c0.637-0.705,1.627-1.518,2.974-2.431c1.345-0.917,2.678-1.637,4-2.167c1.744-0.726,3.624-1.09,5.654-1.09
		c2.468,0,4.701,0.56,6.697,1.687c1.992,1.122,3.452,2.654,4.379,4.595c0.927,1.942,1.39,4.133,1.39,6.582
		c0,0.617-0.054,1.364-0.163,2.245c-1.586,0.309-3.006,0.512-4.264,0.596c-2.374,0.178-4.75,0.267-7.129,0.267h-10.599
		c0.042,3.157,0.592,5.717,1.639,7.673c1.045,1.953,2.491,3.395,4.328,4.327c1.844,0.927,3.755,1.389,5.739,1.389
		c1.343,0,2.684-0.215,4.016-0.655c1.334-0.432,2.984-1.23,4.947-2.396L601.719,85.928z M580.523,72.411
		c0.616,0.067,1.785,0.134,3.505,0.202c3.284,0.109,5.542,0.167,6.778,0.167c2.934,0,4.863-0.058,5.787-0.167
		c0.02-0.531,0.034-0.938,0.034-1.224c0-3.484-0.705-6.038-2.115-7.672c-1.413-1.634-3.3-2.444-5.658-2.444
		c-2.487,0-4.498,0.893-6.016,2.678C581.316,65.731,580.547,68.558,580.523,72.411z"/>
	<path fill="#FFFFFF" d="M605.523,81.077h1.985c0.02,1.281,0.086,2.291,0.197,3.043c0.114,0.748,0.301,1.483,0.562,2.2
		c0.267,0.716,0.679,1.323,1.228,1.814c0.555,0.496,1.154,0.883,1.804,1.16c0.653,0.276,1.318,0.46,1.992,0.544
		c0.673,0.092,1.693,0.133,3.063,0.133c2.249,0,4.102-0.595,5.548-1.784c1.447-1.189,2.172-2.823,2.172-4.895
		c0-0.927-0.228-1.742-0.681-2.449c-0.453-0.701-1.104-1.255-1.952-1.651c-0.852-0.396-2.68-0.914-5.483-1.552
		c-2.806-0.642-4.615-1.103-5.432-1.39c-1.238-0.465-2.222-1.026-2.947-1.686c-0.729-0.663-1.309-1.498-1.742-2.517
		c-0.431-1.011-0.645-2.113-0.645-3.303c0-1.745,0.459-3.349,1.375-4.812c0.916-1.466,2.359-2.655,4.321-3.571
		c1.966-0.914,4.106-1.371,6.427-1.371c1.389,0,3.002,0.19,4.832,0.578c1.833,0.386,3.321,0.864,4.475,1.436
		c-0.159,2.45-0.27,4.937-0.33,7.473h-1.888c-0.109-1.608-0.238-2.664-0.382-3.174c-0.144-0.508-0.339-0.956-0.581-1.353
		c-0.239-0.401-0.659-0.821-1.258-1.274c-0.596-0.452-1.362-0.855-2.305-1.207c-0.937-0.354-2.091-0.53-3.46-0.53
		c-1.944,0-3.511,0.573-4.689,1.717c-1.184,1.153-1.777,2.492-1.777,4.036c0,0.858,0.172,1.599,0.517,2.216
		c0.339,0.619,0.796,1.121,1.376,1.504c0.572,0.387,1.378,0.735,2.415,1.046l5.5,1.355c2.784,0.702,4.697,1.31,5.748,1.813
		c1.047,0.512,1.891,1.299,2.53,2.368c0.641,1.07,0.961,2.349,0.961,3.849c0,2.98-1.229,5.57-3.691,7.787
		c-2.459,2.216-5.753,3.324-9.883,3.324c-1.901,0-4.426-0.287-7.582-0.861c-1.743-0.329-2.683-0.558-2.812-0.69
		c-0.091-0.068-0.134-0.179-0.134-0.33c0-0.159,0.02-0.345,0.065-0.562c0.198-0.95,0.331-1.871,0.398-2.78
		C605.428,85.829,605.48,83.941,605.523,81.077z"/>
	<path fill="#283F67" d="M564.78,44.503c1.038,0,1.917,0.368,2.632,1.095c0.717,0.725,1.076,1.609,1.076,2.645
		c0,1.013-0.365,1.885-1.095,2.612c-0.727,0.725-1.596,1.093-2.613,1.093c-1.033,0-1.913-0.368-2.643-1.093
		c-0.726-0.728-1.091-1.6-1.091-2.612c0-1.035,0.365-1.92,1.091-2.645C562.867,44.872,563.747,44.503,564.78,44.503z"/>
	<path fill="#283F67" d="M225.615,44.507c1.035,0,1.914,0.362,2.629,1.091c0.716,0.725,1.076,1.609,1.076,2.645
		c0,1.013-0.362,1.885-1.095,2.612c-0.725,0.725-1.594,1.093-2.61,1.093c-1.037,0-1.917-0.368-2.647-1.093
		c-0.725-0.728-1.087-1.6-1.087-2.612c0-1.035,0.362-1.92,1.087-2.645C223.698,44.87,224.579,44.507,225.615,44.507z"/>
	<path fill="#283F67" d="M68.76,44.507c1.036,0,1.915,0.362,2.631,1.091c0.716,0.725,1.074,1.609,1.074,2.645
		c0,1.013-0.362,1.885-1.093,2.612c-0.726,0.725-1.595,1.093-2.612,1.093c-1.036,0-1.915-0.368-2.645-1.093
		c-0.726-0.728-1.089-1.6-1.089-2.612c0-1.035,0.363-1.92,1.089-2.645C66.846,44.87,67.724,44.507,68.76,44.507z"/>
	<path fill="#283F67" d="M71.449,41.826c42.843-44.357,105.011-43.949,149.774,0C187.795-13.124,104.055-14.754,71.449,41.826z"/>
</g>
</svg>
