<?xml version="1.0" encoding="utf-8"?>
<!-- Generator: Adobe Illustrator 16.0.0, SVG Export Plug-In . SVG Version: 6.00 Build 0)  -->
<!DOCTYPE svg PUBLIC "-//W3C//DTD SVG 1.1//EN" "http://www.w3.org/Graphics/SVG/1.1/DTD/svg11.dtd">
<svg version="1.1" id="Layer_1" xmlns="http://www.w3.org/2000/svg" xmlns:xlink="http://www.w3.org/1999/xlink" x="0px" y="0px"
	 width="235px" height="41.014px" viewBox="0 0 235 41.014" enable-background="new 0 0 235 41.014" xml:space="preserve">
<g>
	<path d="M0,34.021v-0.703l1.182-0.012c0.173-0.01,0.309-0.04,0.403-0.094c0.096-0.054,0.168-0.121,0.218-0.204
		c0.091-0.164,0.149-0.457,0.175-0.876c0-0.107,0.02-1.291,0.061-3.547v-1.47c0-0.658-0.012-1.367-0.036-2.125
		c-0.024-0.484-0.063-0.774-0.117-0.865c-0.054-0.09-0.146-0.158-0.278-0.203C1.475,23.877,0.939,23.859,0,23.868v-0.705
		c1.663-0.229,2.878-0.531,3.646-0.902c0.164-0.082,0.274-0.123,0.332-0.123c0.059,0,0.103,0.021,0.137,0.062
		c0.032,0.041,0.049,0.102,0.049,0.186c0,0.057-0.004,0.123-0.012,0.196c-0.033,0.396-0.059,0.984-0.074,1.768l1.614-1.482
		c0.205-0.182,0.333-0.285,0.382-0.309c0.188-0.106,0.46-0.207,0.812-0.298c0.353-0.089,0.723-0.136,1.107-0.136
		c0.788,0,1.489,0.194,2.105,0.582c0.615,0.387,1.087,0.959,1.415,1.716l1.364-1.26c0.306-0.279,0.516-0.453,0.632-0.52
		c0.214-0.122,0.52-0.238,0.915-0.346c0.395-0.107,0.787-0.16,1.174-0.16c0.939,0,1.728,0.249,2.362,0.748
		c0.635,0.497,1.043,1.064,1.225,1.697c0.115,0.421,0.173,1.328,0.173,2.719v1.284l0.03,1.718c0.021,0.998,0.031,1.58,0.031,1.753
		c0.018,0.413,0.066,0.714,0.149,0.904c0.033,0.072,0.085,0.137,0.155,0.189c0.07,0.055,0.172,0.097,0.305,0.13
		c0.05,0.01,0.505,0.021,1.367,0.038v0.703c-1.034-0.057-1.741-0.086-2.118-0.086c-0.362,0-1.088,0.029-2.181,0.086l0.102-3.408
		l0.035-1.336v-1.062c0-1.383-0.071-2.328-0.211-2.834c-0.141-0.507-0.437-0.918-0.886-1.229c-0.45-0.312-0.973-0.469-1.566-0.469
		c-0.687,0-1.306,0.197-1.859,0.592c-0.406,0.305-0.676,0.664-0.806,1.076c-0.13,0.411-0.194,1.214-0.194,2.408v0.827l0.03,1.718
		c0.014,0.998,0.024,1.58,0.031,1.753c0.017,0.413,0.066,0.714,0.148,0.904c0.034,0.072,0.083,0.137,0.15,0.189
		c0.065,0.055,0.166,0.097,0.298,0.13c0.058,0.01,0.518,0.021,1.38,0.038v0.703c-1.211-0.057-2.183-0.086-2.916-0.086
		c-0.592,0-1.672,0.029-3.235,0.086v-0.703l1.181-0.012c0.182-0.01,0.321-0.04,0.415-0.094c0.097-0.054,0.168-0.121,0.218-0.204
		c0.091-0.164,0.146-0.457,0.162-0.876c0.008-0.107,0.027-1.291,0.062-3.547v-0.963c0-1.063-0.082-1.839-0.246-2.328
		c-0.165-0.491-0.452-0.881-0.862-1.174c-0.41-0.292-0.902-0.438-1.477-0.438c-0.492,0-0.958,0.105-1.397,0.313
		c-0.44,0.21-0.779,0.474-1.02,0.785C4.395,25.096,4.25,25.429,4.2,25.782c-0.082,0.568-0.123,1.252-0.123,2.051v0.753
		c0.041,2.143,0.062,3.298,0.062,3.471c0.016,0.413,0.065,0.714,0.147,0.904c0.034,0.072,0.083,0.137,0.15,0.189
		c0.065,0.055,0.169,0.097,0.311,0.13c0.05,0.01,0.505,0.021,1.367,0.038v0.703c-1.137-0.057-2.104-0.086-2.903-0.086
		C2.504,33.936,1.434,33.965,0,34.021z"/>
	<path d="M22.373,23.855v-0.704c1.597-0.183,2.939-0.526,4.026-1.039l0.273,0.198c-0.066,1.754-0.101,3.097-0.101,4.027v2.248
		c0.041,2.143,0.066,3.298,0.075,3.471c0.008,0.413,0.054,0.714,0.136,0.904c0.041,0.072,0.095,0.137,0.16,0.189
		c0.066,0.055,0.164,0.097,0.296,0.13c0.051,0.01,0.507,0.021,1.372,0.038v0.703c-1.252-0.057-2.253-0.086-3.002-0.086
		c-0.658,0-1.737,0.029-3.236,0.086v-0.703l1.181-0.012c0.174-0.01,0.31-0.04,0.403-0.094c0.096-0.054,0.168-0.121,0.218-0.204
		c0.091-0.164,0.15-0.457,0.175-0.876c0-0.107,0.02-1.291,0.061-3.547v-2.174c0-1.228-0.041-1.955-0.123-2.188
		c-0.049-0.123-0.137-0.216-0.266-0.276C23.895,23.886,23.345,23.855,22.373,23.855z"/>
	<path d="M29.525,34.021v-0.703l1.181-0.012c0.175-0.01,0.309-0.04,0.404-0.094s0.168-0.121,0.218-0.204
		c0.091-0.164,0.148-0.457,0.174-0.876c0-0.107,0.021-1.291,0.062-3.547v-1.47c0-0.658-0.013-1.367-0.037-2.125
		c-0.024-0.484-0.063-0.774-0.117-0.865c-0.054-0.09-0.146-0.158-0.277-0.203c-0.132-0.046-0.667-0.063-1.606-0.055v-0.705
		c1.663-0.229,2.879-0.531,3.644-0.902c0.166-0.082,0.277-0.123,0.334-0.123c0.059,0,0.104,0.021,0.136,0.062
		c0.034,0.041,0.05,0.102,0.05,0.186c0,0.057-0.004,0.123-0.013,0.196c-0.024,0.297-0.048,0.924-0.073,1.878l2.298-1.964
		c0.674-0.248,1.313-0.371,1.914-0.371c0.667,0,1.301,0.136,1.896,0.409c0.598,0.271,1.047,0.613,1.347,1.025
		c0.301,0.41,0.501,0.929,0.6,1.556c0.057,0.371,0.087,1.403,0.087,3.1v2.188c0,1.069,0.028,1.8,0.086,2.187
		c0.041,0.248,0.104,0.418,0.19,0.512c0.088,0.097,0.222,0.155,0.401,0.18l1.322,0.038v0.703c-0.807-0.057-1.478-0.086-2.013-0.086
		c-0.462,0-1.228,0.029-2.297,0.086c0.114-2.033,0.171-3.318,0.171-3.853v-2.077c0-1.293-0.048-2.14-0.148-2.543
		c-0.139-0.554-0.456-0.998-0.95-1.335c-0.494-0.339-1.092-0.507-1.791-0.507c-0.617,0-1.183,0.146-1.693,0.438
		c-0.51,0.293-0.875,0.63-1.093,1.013c-0.218,0.385-0.327,1.028-0.327,1.935v1.494c0.041,2.141,0.062,3.298,0.062,3.471
		c0.018,0.413,0.065,0.714,0.149,0.904c0.032,0.072,0.082,0.137,0.149,0.189c0.066,0.055,0.17,0.097,0.311,0.13
		c0.05,0.01,0.505,0.021,1.366,0.038v0.703c-1.004-0.057-1.914-0.086-2.729-0.086C32.218,33.936,31.09,33.965,29.525,34.021z"/>
	<path d="M51.381,17.246v-0.704c0.913-0.101,1.686-0.216,2.316-0.354c0.63-0.135,1.245-0.301,1.847-0.499l0.16,0.11
		c-0.034,0.7-0.069,2.052-0.11,4.053l-0.05,1.977v7.733c0,0.84,0.014,1.567,0.043,2.181c0.028,0.613,0.08,0.979,0.154,1.1
		c0.073,0.119,0.198,0.216,0.37,0.29c0.173,0.074,0.688,0.147,1.544,0.222v0.667c-1.004-0.057-1.712-0.086-2.124-0.086
		c-0.355,0-1.079,0.029-2.175,0.086c0.025-0.567,0.045-1.335,0.062-2.298c-0.33,0.239-0.772,0.598-1.329,1.075
		c-0.555,0.479-0.989,0.869-1.302,1.175c-0.66,0.164-1.24,0.246-1.743,0.246c-0.931,0-1.787-0.23-2.568-0.692
		c-0.783-0.46-1.386-1.129-1.811-2.007s-0.637-1.863-0.637-2.96c0-0.821,0.13-1.604,0.391-2.34c0.259-0.737,0.585-1.308,0.981-1.711
		c0.223-0.229,0.729-0.581,1.52-1.051c0.79-0.469,1.431-0.809,1.921-1.018c0.489-0.211,1.022-0.316,1.601-0.316
		c0.519,0,1.027,0.064,1.524,0.192c0.498,0.127,0.983,0.323,1.452,0.586v-3.249c0-1.145-0.05-1.84-0.147-2.086
		c-0.034-0.092-0.097-0.158-0.186-0.198C52.92,17.294,52.353,17.254,51.381,17.246z M53.419,25.013
		c-0.56-0.615-1.146-1.065-1.761-1.35c-0.613-0.284-1.216-0.427-1.811-0.427c-0.674,0-1.297,0.173-1.863,0.519
		c-0.569,0.347-1.005,0.868-1.305,1.567c-0.301,0.699-0.451,1.539-0.451,2.517c0,1.506,0.375,2.681,1.124,3.528
		s1.65,1.271,2.704,1.271c0.551,0,1.045-0.116,1.482-0.346c0.436-0.23,0.818-0.567,1.148-1.012c0.33-0.443,0.541-0.938,0.632-1.48
		c0.066-0.362,0.1-1.254,0.1-2.677V25.013z"/>
	<path d="M59.14,34.071c0.099-1.037,0.151-1.69,0.161-1.962c0.048-1.785,0.072-2.836,0.072-3.148v-5.494
		c0-1.374-0.02-2.793-0.061-4.258c-0.033-0.989-0.08-1.54-0.137-1.654c-0.041-0.082-0.107-0.141-0.198-0.172
		c-0.125-0.058-0.697-0.089-1.716-0.089v-0.727c1.86-0.23,3.153-0.521,3.88-0.865c0.106-0.05,0.188-0.075,0.246-0.075
		c0.057,0,0.104,0.02,0.136,0.057c0.033,0.036,0.05,0.088,0.05,0.154c0,0.057-0.009,0.139-0.025,0.246l-0.013,0.408
		c-0.041,1.471-0.065,2.726-0.072,3.762l-0.025,1.925v2.442l1.705-1.668c0.222-0.189,0.589-0.375,1.099-0.556
		c0.511-0.181,1.055-0.272,1.631-0.272c0.906,0,1.709,0.212,2.409,0.637s1.236,1.024,1.611,1.796
		c0.375,0.777,0.562,1.633,0.562,2.571c0,0.724-0.106,1.412-0.321,2.063c-0.213,0.649-0.488,1.231-0.827,1.741
		c-0.246,0.387-0.457,0.651-0.63,0.79l-1.804,1.297c-0.732,0.544-1.306,0.893-1.718,1.045c-0.411,0.152-0.938,0.229-1.58,0.229
		c-0.551,0-1.062-0.074-1.532-0.223c-0.469-0.148-0.967-0.407-1.495-0.777l-1,0.938L59.14,34.071z M61.438,26.103v4.633
		c0,0.412,0.021,0.676,0.067,0.791c0.045,0.116,0.185,0.269,0.414,0.458c0.347,0.287,0.747,0.519,1.204,0.691
		c0.457,0.172,0.941,0.259,1.452,0.259c1.193,0,2.112-0.462,2.754-1.384c0.643-0.922,0.963-2.062,0.963-3.422
		c0-0.963-0.151-1.771-0.456-2.42c-0.305-0.651-0.725-1.141-1.26-1.465c-0.535-0.325-1.136-0.489-1.803-0.489
		c-0.783,0-1.482,0.226-2.102,0.675C62.055,24.878,61.643,25.436,61.438,26.103z"/>
	<path d="M71.196,34.021v-0.703c0.937-0.018,1.441-0.033,1.517-0.05c0.141-0.024,0.246-0.063,0.317-0.118
		c0.069-0.053,0.126-0.13,0.168-0.229c0.082-0.188,0.132-0.484,0.147-0.89c0.042-2.197,0.063-3.346,0.063-3.446v-1.47
		c0-0.658-0.013-1.367-0.038-2.125c-0.017-0.484-0.052-0.774-0.105-0.865c-0.053-0.09-0.147-0.158-0.284-0.203
		c-0.135-0.046-0.672-0.063-1.612-0.055v-0.705c1.665-0.229,2.879-0.531,3.645-0.902c0.166-0.082,0.276-0.123,0.334-0.123
		c0.059,0,0.104,0.021,0.137,0.062c0.032,0.041,0.048,0.102,0.048,0.186c0,0.057-0.003,0.123-0.012,0.196
		c-0.041,0.503-0.065,1.28-0.073,2.335c0.369-0.429,0.712-0.853,1.025-1.272c0.312-0.419,0.539-0.691,0.678-0.815
		c0.249-0.214,0.532-0.385,0.853-0.512c0.322-0.128,0.655-0.192,1.001-0.192s0.688,0.075,1.026,0.223l0.075,0.174
		c-0.126,1.095-0.195,2.058-0.211,2.89h-0.558c-0.188-0.395-0.407-0.684-0.659-0.863c-0.252-0.183-0.566-0.273-0.945-0.273
		c-0.635,0-1.174,0.263-1.617,0.785c-0.446,0.522-0.668,1.308-0.668,2.353v1.274c0,0.542,0.02,1.535,0.061,2.978
		c0.009,0.51,0.028,0.834,0.063,0.975c0.031,0.139,0.076,0.241,0.13,0.302c0.053,0.062,0.14,0.114,0.266,0.155
		c0.246,0.074,0.913,0.148,2.001,0.223v0.703c-1.45-0.057-2.687-0.086-3.706-0.086C73.207,33.936,72.185,33.965,71.196,34.021z"/>
	<path d="M81.166,23.855v-0.704c1.599-0.183,2.941-0.526,4.028-1.039l0.271,0.198c-0.065,1.754-0.098,3.097-0.098,4.027v2.248
		c0.041,2.143,0.066,3.298,0.073,3.471c0.009,0.413,0.054,0.714,0.138,0.904c0.04,0.072,0.094,0.137,0.16,0.189
		c0.066,0.055,0.164,0.097,0.296,0.13c0.05,0.01,0.507,0.021,1.372,0.038v0.703c-1.253-0.057-2.253-0.086-3.003-0.086
		c-0.659,0-1.736,0.029-3.237,0.086v-0.703l1.182-0.012c0.174-0.01,0.309-0.04,0.404-0.094c0.095-0.054,0.167-0.121,0.218-0.204
		c0.091-0.164,0.147-0.457,0.174-0.876c0-0.107,0.021-1.291,0.062-3.547v-2.174c0-1.228-0.041-1.955-0.123-2.188
		c-0.05-0.123-0.139-0.216-0.266-0.276C82.688,23.886,82.139,23.855,81.166,23.855z"/>
	<path d="M94.536,17.246v-0.704c0.913-0.101,1.686-0.216,2.315-0.354c0.63-0.135,1.244-0.301,1.846-0.499l0.161,0.11
		c-0.032,0.7-0.07,2.052-0.11,4.053l-0.051,1.977v7.733c0,0.84,0.014,1.567,0.045,2.181c0.029,0.613,0.08,0.979,0.153,1.1
		c0.075,0.119,0.198,0.216,0.37,0.29c0.174,0.074,0.688,0.147,1.546,0.222v0.667c-1.007-0.057-1.714-0.086-2.127-0.086
		c-0.354,0-1.077,0.029-2.173,0.086c0.023-0.567,0.045-1.335,0.061-2.298c-0.329,0.239-0.771,0.598-1.326,1.075
		c-0.557,0.479-0.992,0.869-1.304,1.175c-0.658,0.164-1.24,0.246-1.741,0.246c-0.932,0-1.787-0.23-2.57-0.692
		c-0.784-0.46-1.386-1.129-1.81-2.007s-0.637-1.863-0.637-2.96c0-0.821,0.131-1.604,0.39-2.34c0.258-0.737,0.586-1.308,0.982-1.711
		c0.221-0.229,0.728-0.581,1.518-1.051c0.793-0.469,1.434-0.809,1.922-1.018c0.49-0.211,1.023-0.316,1.6-0.316
		c0.519,0,1.027,0.064,1.525,0.192c0.499,0.127,0.982,0.323,1.451,0.586v-3.249c0-1.145-0.048-1.84-0.147-2.086
		c-0.032-0.092-0.094-0.158-0.186-0.198C96.076,17.294,95.506,17.254,94.536,17.246z M96.572,25.013
		c-0.56-0.615-1.146-1.065-1.76-1.35s-1.217-0.427-1.809-0.427c-0.677,0-1.297,0.173-1.866,0.519
		c-0.569,0.347-1.003,0.868-1.304,1.567c-0.3,0.699-0.449,1.539-0.449,2.517c0,1.506,0.374,2.681,1.121,3.528
		c0.749,0.848,1.651,1.271,2.706,1.271c0.552,0,1.046-0.116,1.48-0.346c0.438-0.23,0.821-0.567,1.151-1.012
		c0.33-0.443,0.541-0.938,0.631-1.48c0.066-0.362,0.098-1.254,0.098-2.677V25.013z"/>
	<path d="M114.377,23.101l0.099,0.236c-0.321,0.484-0.532,0.817-0.63,1h-2.298c0.189,0.485,0.284,0.94,0.284,1.368
		c0,0.624-0.163,1.234-0.489,1.83c-0.325,0.596-0.801,1.106-1.426,1.528c-0.626,0.423-1.293,0.709-2.001,0.856
		c-0.462,0.101-1.084,0.141-1.866,0.123c-0.535,0.427-0.874,0.746-1.013,0.96c-0.092,0.146-0.138,0.308-0.138,0.478
		c0,0.198,0.062,0.372,0.181,0.523c0.119,0.152,0.304,0.259,0.55,0.319c0.37,0.104,1.03,0.155,1.979,0.155l2.666-0.062
		c0.932,0,1.638,0.121,2.119,0.365c0.481,0.242,0.838,0.614,1.068,1.114c0.23,0.499,0.347,1.061,0.347,1.688
		c0,0.849-0.279,1.713-0.834,2.592c-0.557,0.878-1.382,1.57-2.478,2.078c-1.095,0.507-2.322,0.76-3.682,0.76
		c-1.136,0-2.105-0.177-2.903-0.531c-0.798-0.354-1.39-0.827-1.771-1.42c-0.384-0.593-0.575-1.215-0.575-1.865
		c0-0.362,0.056-0.702,0.166-1.02s0.298-0.656,0.562-1.019c1.005-0.462,1.726-0.865,2.162-1.211
		c-0.683-0.223-1.121-0.434-1.314-0.63c-0.194-0.198-0.29-0.396-0.29-0.594c0-0.165,0.123-0.608,0.371-1.335
		c0.402-0.336,1.035-0.815,1.9-1.432c-0.739-0.205-1.311-0.445-1.71-0.723c-0.399-0.274-0.71-0.649-0.934-1.122
		c-0.223-0.473-0.333-0.991-0.333-1.56c0-0.839,0.214-1.589,0.643-2.251c0.428-0.661,1.148-1.199,2.162-1.615
		c1.013-0.416,1.952-0.623,2.817-0.623c0.559,0,1.092,0.089,1.599,0.271c0.507,0.182,0.986,0.452,1.439,0.815
		C112.354,23.143,113.544,23.126,114.377,23.101z M107.892,34.159c-1.228,0-1.998,0.016-2.311,0.048
		c-0.156,0.024-0.335,0.107-0.531,0.248c-0.651,0.46-0.998,0.716-1.039,0.765c-0.081,0.082-0.172,0.252-0.272,0.507
		c-0.171,0.462-0.259,0.926-0.259,1.396c0,0.863,0.335,1.596,1.006,2.192c0.674,0.598,1.598,0.896,2.776,0.896
		c0.872,0,1.67-0.174,2.391-0.524c0.72-0.352,1.263-0.827,1.63-1.435c0.366-0.604,0.55-1.212,0.55-1.82
		c-0.025-0.528-0.105-0.928-0.241-1.199s-0.302-0.484-0.494-0.642c-0.194-0.157-0.459-0.284-0.797-0.384
		C110.102,34.182,109.299,34.166,107.892,34.159z M104.271,25.875c0,0.583,0.108,1.149,0.328,1.701
		c0.218,0.552,0.539,0.967,0.963,1.245c0.424,0.28,0.908,0.419,1.452,0.419c0.708,0,1.334-0.229,1.878-0.684
		c0.543-0.456,0.815-1.188,0.815-2.2c0-1.036-0.272-1.86-0.815-2.473c-0.544-0.612-1.198-0.918-1.964-0.918
		c-0.799,0-1.442,0.253-1.928,0.758C104.512,24.23,104.271,24.947,104.271,25.875z"/>
	<path d="M124.767,32.104l-0.396,0.891c-0.568,0.354-0.984,0.59-1.248,0.706c-0.387,0.174-0.829,0.319-1.327,0.439
		c-0.499,0.119-1.024,0.18-1.575,0.18c-1.088,0-2.071-0.227-2.951-0.68c-0.883-0.453-1.569-1.131-2.058-2.033
		c-0.49-0.901-0.736-1.957-0.736-3.168c0-0.948,0.13-1.803,0.39-2.563c0.26-0.762,0.554-1.324,0.884-1.686
		c0.238-0.264,0.607-0.567,1.111-0.908c0.503-0.343,1-0.611,1.494-0.81c0.651-0.271,1.354-0.407,2.112-0.407
		c0.923,0,1.758,0.209,2.503,0.63c0.744,0.419,1.289,0.991,1.636,1.717c0.346,0.726,0.519,1.544,0.519,2.459
		c0,0.23-0.019,0.51-0.06,0.839c-0.593,0.115-1.125,0.19-1.593,0.223c-0.887,0.066-1.775,0.1-2.664,0.1h-3.96
		c0.017,1.179,0.222,2.136,0.611,2.866c0.391,0.729,0.932,1.269,1.619,1.616c0.688,0.347,1.401,0.52,2.144,0.52
		c0.501,0,1.003-0.08,1.5-0.245c0.497-0.161,1.115-0.459,1.849-0.896L124.767,32.104z M116.848,27.054
		c0.229,0.024,0.667,0.05,1.31,0.075c1.227,0.041,2.071,0.062,2.533,0.062c1.095,0,1.815-0.021,2.162-0.062
		c0.007-0.198,0.012-0.351,0.012-0.457c0-1.302-0.265-2.256-0.79-2.866c-0.528-0.61-1.232-0.913-2.113-0.913
		c-0.93,0-1.681,0.333-2.248,1C117.144,24.558,116.857,25.614,116.848,27.054z"/>
	<path d="M136.166,30.291h0.74c0.009,0.479,0.034,0.856,0.075,1.137s0.11,0.555,0.211,0.822c0.098,0.268,0.251,0.494,0.458,0.678
		c0.205,0.186,0.43,0.33,0.674,0.434c0.243,0.104,0.49,0.172,0.742,0.203c0.252,0.034,0.633,0.05,1.146,0.05
		c0.841,0,1.532-0.223,2.072-0.667s0.811-1.055,0.811-1.828c0-0.347-0.083-0.651-0.252-0.915c-0.171-0.263-0.412-0.469-0.73-0.617
		c-0.319-0.148-1-0.341-2.049-0.58c-1.048-0.239-1.724-0.411-2.029-0.519c-0.461-0.174-0.829-0.384-1.102-0.63
		c-0.273-0.248-0.488-0.56-0.65-0.94c-0.16-0.377-0.239-0.79-0.239-1.234c0-0.651,0.17-1.25,0.512-1.798
		c0.343-0.547,0.881-0.991,1.615-1.334c0.734-0.342,1.535-0.512,2.399-0.512c0.521,0,1.122,0.07,1.807,0.216
		c0.686,0.144,1.242,0.322,1.67,0.536c-0.058,0.915-0.099,1.845-0.123,2.792h-0.704c-0.041-0.602-0.088-0.995-0.144-1.187
		c-0.053-0.189-0.124-0.356-0.216-0.505c-0.09-0.15-0.248-0.307-0.471-0.476s-0.51-0.32-0.86-0.451
		c-0.351-0.133-0.782-0.198-1.292-0.198c-0.728,0-1.312,0.214-1.753,0.642c-0.441,0.431-0.662,0.931-0.662,1.508
		c0,0.32,0.063,0.597,0.19,0.828c0.128,0.231,0.3,0.419,0.513,0.562c0.217,0.145,0.517,0.274,0.905,0.391l2.053,0.506
		c1.041,0.263,1.756,0.49,2.148,0.679c0.393,0.19,0.708,0.484,0.946,0.884c0.239,0.4,0.359,0.878,0.359,1.438
		c0,1.113-0.46,2.081-1.38,2.909s-2.15,1.242-3.691,1.242c-0.711,0-1.654-0.107-2.833-0.322c-0.652-0.123-1.003-0.208-1.053-0.258
		c-0.032-0.025-0.05-0.066-0.05-0.123c0-0.06,0.009-0.129,0.025-0.21c0.074-0.355,0.123-0.699,0.147-1.039
		C136.129,32.066,136.15,31.361,136.166,30.291z"/>
	<path d="M145.408,24.337v-0.519c0.792-0.312,1.421-0.593,1.889-0.841c0-1.96,0-3.212,0-3.755c0.858-0.297,1.554-0.613,2.089-0.952
		l0.296,0.248c-0.091,0.683-0.189,2.19-0.296,4.521c0.659,0.007,1.055,0.013,1.187,0.013c0.073,0,0.498-0.01,1.271-0.025
		c0.429-0.009,0.75-0.024,0.963-0.05l0.088,0.086l-0.26,1.15c-0.52-0.009-0.996-0.012-1.433-0.012c-0.438,0-1.042,0.003-1.816,0.012
		l-0.062,5.026c-0.025,1.228-0.017,1.961,0.024,2.199c0.041,0.239,0.119,0.447,0.233,0.625c0.115,0.177,0.265,0.319,0.449,0.426
		c0.185,0.108,0.498,0.189,0.942,0.246c0.336,0,0.608-0.014,0.819-0.042c0.208-0.028,0.473-0.103,0.793-0.216l0.148,0.482
		c-0.388,0.305-0.762,0.62-1.124,0.949c-0.312,0.116-0.604,0.191-0.876,0.229c-0.271,0.037-0.583,0.055-0.938,0.055
		c-0.436,0-0.784-0.049-1.042-0.148c-0.259-0.098-0.496-0.235-0.71-0.414c-0.214-0.177-0.391-0.401-0.533-0.671
		c-0.142-0.274-0.233-0.702-0.275-1.285c0.008-0.561,0.025-1.174,0.048-1.841c0.009-0.132,0.013-0.276,0.013-0.434v-5.127h-0.506
		C146.38,24.274,145.918,24.296,145.408,24.337z"/>
	<path d="M153.672,34.021v-0.703c0.935-0.018,1.442-0.033,1.517-0.05c0.14-0.024,0.246-0.063,0.316-0.118
		c0.071-0.053,0.126-0.13,0.167-0.229c0.084-0.188,0.132-0.484,0.15-0.89c0.041-2.197,0.06-3.346,0.06-3.446v-1.47
		c0-0.658-0.012-1.367-0.035-2.125c-0.018-0.484-0.052-0.774-0.104-0.865c-0.054-0.09-0.148-0.158-0.285-0.203
		c-0.136-0.046-0.674-0.063-1.611-0.055v-0.705c1.662-0.229,2.877-0.531,3.645-0.902c0.163-0.082,0.274-0.123,0.334-0.123
		c0.057,0,0.102,0.021,0.135,0.062c0.032,0.041,0.05,0.102,0.05,0.186c0,0.057-0.005,0.123-0.013,0.196
		c-0.042,0.503-0.065,1.28-0.074,2.335c0.37-0.429,0.712-0.853,1.025-1.272c0.312-0.419,0.539-0.691,0.68-0.815
		c0.246-0.214,0.531-0.385,0.853-0.512c0.321-0.128,0.654-0.192,1.001-0.192c0.346,0,0.687,0.075,1.024,0.223l0.074,0.174
		c-0.123,1.095-0.194,2.058-0.211,2.89h-0.555c-0.19-0.395-0.41-0.684-0.661-0.863c-0.252-0.183-0.565-0.273-0.945-0.273
		c-0.634,0-1.174,0.263-1.619,0.785c-0.443,0.522-0.666,1.308-0.666,2.353v1.274c0,0.542,0.021,1.535,0.062,2.978
		c0.007,0.51,0.028,0.834,0.06,0.975c0.034,0.139,0.077,0.241,0.131,0.302c0.054,0.062,0.143,0.114,0.266,0.155
		c0.246,0.074,0.913,0.148,2.002,0.223v0.703c-1.45-0.057-2.685-0.086-3.707-0.086C155.681,33.936,154.661,33.965,153.672,34.021z"
		/>
	<path d="M164.853,25.56l-0.653-0.174c0.007-0.188,0.01-0.447,0.01-0.778c0-0.345-0.003-0.62-0.01-0.826
		c1.047-0.685,1.905-1.146,2.572-1.384c0.512-0.173,1.084-0.26,1.719-0.26c0.94,0,1.733,0.177,2.377,0.532
		c0.643,0.353,1.122,0.858,1.434,1.52c0.216,0.46,0.322,1.091,0.322,1.889l-0.062,2.262v3.68c0,0.396,0.031,0.68,0.098,0.853
		c0.051,0.126,0.129,0.215,0.235,0.273c0.082,0.049,0.256,0.082,0.52,0.099l0.803,0.074v0.703c-0.676-0.057-1.269-0.086-1.779-0.086
		c-0.493,0-1.154,0.029-1.977,0.086l0.061-2.175c-1.68,1.271-2.675,1.983-2.989,2.145c-0.312,0.161-0.708,0.24-1.184,0.24
		c-0.998,0-1.773-0.266-2.33-0.797c-0.557-0.53-0.833-1.236-0.833-2.117c0-0.569,0.097-1.088,0.289-1.558
		c0.193-0.469,0.427-0.842,0.699-1.118c0.271-0.275,0.547-0.479,0.827-0.61c0.477-0.223,1.254-0.462,2.329-0.718
		c1.075-0.255,2.138-0.443,3.191-0.568c0.01-0.781-0.084-1.392-0.282-1.828c-0.198-0.436-0.532-0.794-1.001-1.074
		c-0.47-0.279-1.042-0.421-1.718-0.421c-0.485,0-0.912,0.065-1.277,0.198c-0.367,0.132-0.592,0.242-0.675,0.333l-0.221,0.444
		C165.124,24.893,164.961,25.28,164.853,25.56z M170.521,27.499c-1.069,0.181-1.982,0.383-2.741,0.605
		c-0.758,0.223-1.293,0.452-1.605,0.691c-0.19,0.14-0.354,0.351-0.493,0.63c-0.217,0.412-0.322,0.869-0.322,1.373
		c0,0.609,0.168,1.083,0.506,1.427c0.338,0.341,0.809,0.511,1.409,0.511c0.551,0,1.097-0.158,1.637-0.476
		c0.539-0.315,1.076-0.792,1.61-1.425V27.499z"/>
	<path d="M174.478,24.337v-0.519c0.794-0.312,1.423-0.593,1.891-0.841c0-1.96,0-3.212,0-3.755c0.855-0.297,1.552-0.613,2.087-0.952
		l0.298,0.248c-0.091,0.683-0.191,2.19-0.298,4.521c0.66,0.007,1.055,0.013,1.186,0.013c0.076,0,0.499-0.01,1.272-0.025
		c0.429-0.009,0.751-0.024,0.966-0.05l0.084,0.086l-0.258,1.15c-0.52-0.009-0.997-0.012-1.435-0.012
		c-0.435,0-1.041,0.003-1.815,0.012l-0.062,5.026c-0.024,1.228-0.017,1.961,0.024,2.199c0.041,0.239,0.119,0.447,0.235,0.625
		c0.113,0.177,0.264,0.319,0.447,0.426c0.186,0.108,0.499,0.189,0.941,0.246c0.337,0,0.61-0.014,0.819-0.042
		c0.211-0.028,0.475-0.103,0.794-0.216l0.147,0.482c-0.387,0.305-0.76,0.62-1.122,0.949c-0.313,0.116-0.604,0.191-0.877,0.229
		c-0.271,0.037-0.584,0.055-0.937,0.055c-0.437,0-0.783-0.049-1.044-0.148c-0.258-0.098-0.494-0.235-0.708-0.414
		c-0.214-0.177-0.393-0.401-0.533-0.671c-0.144-0.274-0.234-0.702-0.276-1.285c0.009-0.561,0.024-1.174,0.05-1.841
		c0.009-0.132,0.013-0.276,0.013-0.434v-5.127h-0.507C175.449,24.274,174.989,24.296,174.478,24.337z"/>
	<path d="M193.082,32.104l-0.396,0.891c-0.566,0.354-0.984,0.59-1.246,0.706c-0.387,0.174-0.829,0.319-1.329,0.439
		c-0.498,0.119-1.022,0.18-1.575,0.18c-1.086,0-2.071-0.227-2.952-0.68c-0.882-0.453-1.566-1.131-2.057-2.033
		c-0.49-0.901-0.734-1.957-0.734-3.168c0-0.948,0.13-1.803,0.388-2.563c0.261-0.762,0.556-1.324,0.883-1.686
		c0.239-0.264,0.61-0.567,1.113-0.908c0.502-0.343,1.001-0.611,1.495-0.81c0.649-0.271,1.354-0.407,2.112-0.407
		c0.922,0,1.755,0.209,2.501,0.63c0.745,0.419,1.292,0.991,1.637,1.717c0.347,0.726,0.52,1.544,0.52,2.459
		c0,0.23-0.021,0.51-0.062,0.839c-0.593,0.115-1.123,0.19-1.592,0.223c-0.889,0.066-1.776,0.1-2.665,0.1h-3.958
		c0.016,1.179,0.219,2.136,0.61,2.866c0.392,0.729,0.931,1.269,1.619,1.616c0.688,0.347,1.401,0.52,2.143,0.52
		c0.503,0,1.002-0.08,1.502-0.245c0.497-0.161,1.112-0.459,1.846-0.896L193.082,32.104z M185.164,27.054
		c0.229,0.024,0.667,0.05,1.309,0.075c1.229,0.041,2.072,0.062,2.532,0.062c1.095,0,1.815-0.021,2.162-0.062
		c0.009-0.198,0.012-0.351,0.012-0.457c0-1.302-0.263-2.256-0.79-2.866c-0.526-0.61-1.231-0.913-2.111-0.913
		c-0.932,0-1.681,0.333-2.25,1C185.459,24.558,185.171,25.614,185.164,27.054z"/>
	<path d="M207.055,23.101l0.101,0.236c-0.323,0.484-0.532,0.817-0.632,1h-2.299c0.19,0.485,0.286,0.94,0.286,1.368
		c0,0.624-0.164,1.234-0.488,1.83c-0.325,0.596-0.802,1.106-1.428,1.528c-0.626,0.423-1.293,0.709-2.001,0.856
		c-0.46,0.101-1.082,0.141-1.865,0.123c-0.536,0.427-0.873,0.746-1.012,0.96c-0.091,0.146-0.138,0.308-0.138,0.478
		c0,0.198,0.061,0.372,0.18,0.523c0.12,0.152,0.303,0.259,0.55,0.319c0.371,0.104,1.029,0.155,1.977,0.155l2.668-0.062
		c0.932,0,1.638,0.121,2.119,0.365c0.481,0.242,0.837,0.614,1.068,1.114c0.23,0.499,0.347,1.061,0.347,1.688
		c0,0.849-0.278,1.713-0.835,2.592c-0.556,0.878-1.38,1.57-2.476,2.078c-1.097,0.507-2.322,0.76-3.682,0.76
		c-1.137,0-2.104-0.177-2.904-0.531c-0.8-0.354-1.39-0.827-1.773-1.42c-0.382-0.593-0.573-1.215-0.573-1.865
		c0-0.362,0.057-0.702,0.167-1.02s0.297-0.656,0.562-1.019c1.005-0.462,1.726-0.865,2.162-1.211
		c-0.683-0.223-1.122-0.434-1.316-0.63c-0.192-0.198-0.289-0.396-0.289-0.594c0-0.165,0.123-0.608,0.369-1.335
		c0.405-0.336,1.038-0.815,1.903-1.432c-0.742-0.205-1.312-0.445-1.71-0.723c-0.399-0.274-0.711-0.649-0.933-1.122
		c-0.224-0.473-0.334-0.991-0.334-1.56c0-0.839,0.214-1.589,0.642-2.251c0.429-0.661,1.148-1.199,2.162-1.615
		c1.013-0.416,1.952-0.623,2.817-0.623c0.56,0,1.093,0.089,1.6,0.271c0.507,0.182,0.986,0.452,1.439,0.815
		C205.033,23.143,206.224,23.126,207.055,23.101z M200.568,34.159c-1.228,0-1.996,0.016-2.311,0.048
		c-0.156,0.024-0.333,0.107-0.53,0.248c-0.65,0.46-0.995,0.716-1.036,0.765c-0.085,0.082-0.174,0.252-0.273,0.507
		c-0.174,0.462-0.259,0.926-0.259,1.396c0,0.863,0.335,1.596,1.006,2.192c0.673,0.598,1.597,0.896,2.773,0.896
		c0.873,0,1.671-0.174,2.391-0.524c0.722-0.352,1.265-0.827,1.631-1.435c0.367-0.604,0.551-1.212,0.551-1.82
		c-0.024-0.528-0.104-0.928-0.242-1.199c-0.136-0.271-0.301-0.484-0.494-0.642c-0.192-0.157-0.458-0.284-0.796-0.384
		C202.78,34.182,201.979,34.166,200.568,34.159z M196.949,25.875c0,0.583,0.108,1.149,0.328,1.701
		c0.218,0.552,0.539,0.967,0.963,1.245c0.425,0.28,0.909,0.419,1.452,0.419c0.709,0,1.335-0.229,1.877-0.684
		c0.544-0.456,0.815-1.188,0.815-2.2c0-1.036-0.271-1.86-0.815-2.473c-0.542-0.612-1.199-0.918-1.964-0.918
		c-0.799,0-1.441,0.253-1.927,0.758C197.192,24.23,196.949,24.947,196.949,25.875z"/>
	<path d="M207.993,23.855v-0.704c1.598-0.183,2.941-0.526,4.027-1.039l0.271,0.198c-0.066,1.754-0.098,3.097-0.098,4.027v2.248
		c0.041,2.143,0.065,3.298,0.074,3.471c0.008,0.413,0.054,0.714,0.136,0.904c0.041,0.072,0.094,0.137,0.16,0.189
		c0.065,0.055,0.164,0.097,0.297,0.13c0.05,0.01,0.506,0.021,1.371,0.038v0.703c-1.252-0.057-2.253-0.086-3.002-0.086
		c-0.659,0-1.738,0.029-3.237,0.086v-0.703l1.181-0.012c0.175-0.01,0.309-0.04,0.405-0.094c0.094-0.054,0.167-0.121,0.218-0.204
		c0.09-0.164,0.148-0.457,0.172-0.876c0-0.107,0.022-1.291,0.063-3.547v-2.174c0-1.228-0.041-1.955-0.124-2.188
		c-0.05-0.123-0.139-0.216-0.266-0.276C209.514,23.886,208.965,23.855,207.993,23.855z"/>
	<path d="M224.808,32.104l-0.395,0.891c-0.569,0.354-0.984,0.59-1.249,0.706c-0.387,0.174-0.83,0.319-1.326,0.439
		c-0.5,0.119-1.024,0.18-1.575,0.18c-1.089,0-2.072-0.227-2.953-0.68s-1.567-1.131-2.057-2.033c-0.49-0.901-0.737-1.957-0.737-3.168
		c0-0.948,0.131-1.803,0.392-2.563c0.258-0.762,0.552-1.324,0.883-1.686c0.238-0.264,0.608-0.567,1.111-0.908
		c0.503-0.343,1.001-0.611,1.494-0.81c0.652-0.271,1.354-0.407,2.113-0.407c0.922,0,1.756,0.209,2.502,0.63
		c0.744,0.419,1.29,0.991,1.636,1.717c0.347,0.726,0.52,1.544,0.52,2.459c0,0.23-0.021,0.51-0.062,0.839
		c-0.592,0.115-1.123,0.19-1.593,0.223c-0.887,0.066-1.774,0.1-2.663,0.1h-3.96c0.016,1.179,0.221,2.136,0.612,2.866
		c0.391,0.729,0.931,1.269,1.617,1.616c0.688,0.347,1.402,0.52,2.145,0.52c0.501,0,1.002-0.08,1.5-0.245
		c0.498-0.161,1.115-0.459,1.849-0.896L224.808,32.104z M216.889,27.054c0.23,0.024,0.667,0.05,1.31,0.075
		c1.227,0.041,2.07,0.062,2.532,0.062c1.097,0,1.817-0.021,2.162-0.062c0.007-0.198,0.013-0.351,0.013-0.457
		c0-1.302-0.264-2.256-0.79-2.866c-0.528-0.61-1.232-0.913-2.114-0.913c-0.929,0-1.681,0.333-2.247,1
		C217.185,24.558,216.897,25.614,216.889,27.054z"/>
	<path d="M226.229,30.291h0.741c0.007,0.479,0.032,0.856,0.073,1.137c0.043,0.28,0.112,0.555,0.211,0.822
		c0.1,0.268,0.253,0.494,0.458,0.678c0.207,0.186,0.432,0.33,0.674,0.434c0.244,0.104,0.493,0.172,0.744,0.203
		c0.252,0.034,0.633,0.05,1.145,0.05c0.841,0,1.533-0.223,2.073-0.667c0.541-0.444,0.812-1.055,0.812-1.828
		c0-0.347-0.085-0.651-0.254-0.915c-0.17-0.263-0.413-0.469-0.729-0.617c-0.318-0.148-1.001-0.341-2.049-0.58
		s-1.725-0.411-2.029-0.519c-0.463-0.174-0.83-0.384-1.102-0.63c-0.272-0.248-0.488-0.56-0.65-0.94
		c-0.161-0.377-0.241-0.79-0.241-1.234c0-0.651,0.172-1.25,0.514-1.798c0.343-0.547,0.882-0.991,1.614-1.334
		c0.735-0.342,1.535-0.512,2.401-0.512c0.52,0,1.122,0.07,1.806,0.216c0.685,0.144,1.241,0.322,1.671,0.536
		c-0.059,0.915-0.101,1.845-0.123,2.792h-0.705c-0.041-0.602-0.089-0.995-0.143-1.187c-0.054-0.189-0.127-0.356-0.217-0.505
		c-0.09-0.15-0.246-0.307-0.47-0.476c-0.223-0.169-0.51-0.32-0.861-0.451c-0.35-0.133-0.781-0.198-1.293-0.198
		c-0.727,0-1.312,0.214-1.752,0.642c-0.442,0.431-0.664,0.931-0.664,1.508c0,0.32,0.064,0.597,0.193,0.828
		c0.127,0.231,0.297,0.419,0.514,0.562c0.214,0.145,0.515,0.274,0.902,0.391l2.055,0.506c1.04,0.263,1.755,0.49,2.147,0.679
		c0.392,0.19,0.707,0.484,0.945,0.884c0.24,0.4,0.359,0.878,0.359,1.438c0,1.113-0.459,2.081-1.379,2.909
		c-0.919,0.828-2.149,1.242-3.692,1.242c-0.711,0-1.653-0.107-2.833-0.322c-0.651-0.123-1.002-0.208-1.051-0.258
		c-0.034-0.025-0.05-0.066-0.05-0.123c0-0.06,0.007-0.129,0.024-0.21c0.074-0.355,0.124-0.699,0.148-1.039
		C226.193,32.066,226.213,31.361,226.229,30.291z"/>
	<path fill="#283F67" d="M211.007,16.627c0.388,0,0.717,0.138,0.983,0.409c0.268,0.271,0.402,0.602,0.402,0.988
		c0,0.378-0.137,0.704-0.409,0.976c-0.271,0.271-0.597,0.408-0.977,0.408c-0.386,0-0.715-0.138-0.987-0.408
		c-0.271-0.271-0.407-0.598-0.407-0.976c0-0.387,0.137-0.718,0.407-0.988C210.292,16.765,210.621,16.627,211.007,16.627z"/>
	<path fill="#283F67" d="M84.292,16.629c0.387,0,0.715,0.135,0.982,0.407c0.268,0.271,0.401,0.602,0.401,0.988
		c0,0.378-0.135,0.704-0.409,0.976c-0.271,0.271-0.596,0.408-0.975,0.408c-0.388,0-0.716-0.138-0.989-0.408
		c-0.271-0.271-0.406-0.598-0.406-0.976c0-0.387,0.136-0.718,0.406-0.988C83.576,16.764,83.904,16.629,84.292,16.629z"/>
	<path fill="#283F67" d="M25.689,16.629c0.387,0,0.715,0.135,0.983,0.407c0.268,0.271,0.4,0.602,0.4,0.988
		c0,0.378-0.135,0.704-0.408,0.976c-0.271,0.271-0.596,0.408-0.976,0.408c-0.387,0-0.716-0.138-0.988-0.408
		c-0.271-0.271-0.406-0.598-0.406-0.976c0-0.387,0.135-0.718,0.406-0.988C24.974,16.764,25.303,16.629,25.689,16.629z"/>
	<path fill="#283F67" d="M26.693,15.627c16.007-16.572,39.233-16.42,55.957,0C70.162-4.903,38.876-5.513,26.693,15.627z"/>
</g>
</svg>
